<mxfile host="app.diagrams.net" modified="2023-09-08T05:58:21.614Z" agent="Mozilla/5.0 (Linux; arm_64; Android 10; MGA-LX9N) AppleWebKit/537.36 (KHTML, like Gecko) Chrome/114.0.0.0 YaBrowser/23.7.7.58.00 SA/3 Mobile Safari/537.36" version="21.7.2" etag="HZMCh0iYgybYxDyCenxO" type="github">
  <diagram name="Страница — 1" id="PBRF5k_7MFHGU4H9Aqqk">
    <mxGraphModel>
      <root>
        <mxCell id="0" />
        <mxCell id="1" parent="0" />
      </root>
    </mxGraphModel>
  </diagram>
</mxfile>
